<svg version="1.2" xmlns="http://www.w3.org/2000/svg" viewBox="0 0 239 239" width="512" height="512">
	<style>
		.s0 { fill: #fcbe29 } 
		.s1 { fill: #ffffff } 
		.s2 { fill: #2e2c2c } 
	</style>
	<g id="Layer 1">
		<path fill-rule="evenodd" class="s0" d="m77.37 131.78c-2-22.67 8.49-43.67 22.37-51.68 4.39-2.53 6.4-4.34 6.79-6.1 1.17-5.34 4.02-9.52 7.72-11.33l3.75-1.84v-30.41l2.09-30.42-8.34 0.11c-3.44 0.06-9.84 0.76-14.23 1.55-89.51 16.19-128.73 127.05-69.22 195.65l3.31 3.82 7.69-11.56m168.39 10.39c1.17 1.35 13.26-15.9 18.55-26.46 38.24-76.43-17.39-173.44-99.49-173.5h-6.53l1.78 30.4v30.4l3.75 1.93c3.71 1.9 6.67 6.24 7.68 11.27 0.33 1.68 1.92 3.25 4.87 4.8 15.41 8.12 23.92 29.99 23.94 52.48"/>
		<path fill-rule="evenodd" class="s1" d="m207.97 200.46l-4.24 4.34c-43.97 45.15-124.54 45.29-168.15 0.31l-3.93-4.05 45.42-69.16c0 0-0.42 0.1 42.32 0.1l43.59-0.04z"/>
		<path fill-rule="evenodd" class="s2" d="m118 30.42v30.41l-3.75 1.84c-3.7 1.81-6.55 5.99-7.72 11.33-0.39 1.76-2.4 3.57-6.79 6.1-14.01 8.09-22.72 26.33-22.74 47.65v4.25h43 43v-4.25c-0.02-22.47-9.29-40.84-24.7-48.95-2.95-1.55-4.54-3.12-4.87-4.8-1.01-5.03-3.97-9.36-7.68-11.27l-3.75-1.93v-30.4c0-29.73-0.04-30.4-2-30.4-1.96 0-2 0.67-2 30.42z"/>
	</g>
</svg>